# AST/ASF file generated using VICON BodyLanguage
# -----------------------------------------------
:version 1.10
:name VICON
:units
  mass 1.0
  length 0.45
  angle deg
:documentation
   .ast/.asf automatically generated from VICON data using
   VICON BodyBuilder and BodyLanguage model FoxedUp or BRILLIANT.MOD
:root
   order TX TY TZ RX RY RZ
   axis XYZ
   position 0 0 0  
   orientation 0 0 0 
:bonedata
  begin
     id 1 
     name lhipjoint
     direction 0.604623 -0.733026 0.311616 
     length 2.56391 
     axis 0 0 0  XYZ
  end
  begin
     id 2 
     name lfemur
     direction 0.34202 -0.939693 0  
     length 7.75596  
     axis 0 0 20  XYZ
    dof rx ry rz
    limits (-160.0 20.0)
           (-70.0 70.0)
           (-60.0 70.0)
  end
  begin
     id 3 
     name ltibia
     direction 0.34202 -0.939693 0   
     length 7.63697   
     axis 0 0 20   XYZ
    dof rx
    limits (-10.0 170.0)
  end
  begin
     id 4 
     name lfoot
     direction 0.048038 -0.131983 0.990087   
     length 1.94388   
     axis -90 7.62852e-016 20   XYZ
    dof rx rz
    limits (-45.0 90.0)
           (-70.0 20.0)
  end
  begin
     id 5 
     name ltoes
     direction 1.53565e-011 -4.21929e-011 1   
     length 0.984801   
     axis -90 7.62852e-016 20   XYZ
    dof rx
    limits (-90.0 20.0)
  end
  begin
     id 6 
     name rhipjoint
     direction -0.609162 -0.729836 0.31026   
     length 2.57511  
     axis 0 0 0  XYZ 
  end
  begin
     id 7 
     name rfemur
     direction -0.34202 -0.939693 0   
     length 7.60772   
     axis 0 0 -20   XYZ
    dof rx ry rz
    limits (-160.0 20.0)
           (-70.0 70.0)
           (-70.0 60.0)
  end
  begin
     id 8 
     name rtibia
     direction -0.34202 -0.939693 0   
     length 7.68497   
     axis 0 0 -20   XYZ
    dof rx
    limits (-10.0 170.0)
 end
 begin
     id 9 
     name rfoot
     direction -0.0969806 -0.266452 0.958957   
     length 2.01398  
     axis -90 -7.62852e-016 -20   XYZ
    dof rx rz
    limits (-45.0 90.0)
           (-20.0 70.0)
  end
  begin
     id 10 
     name rtoes
     direction -1.53552e-011 -4.21869e-011 1   
     length 1.00896   
     axis -90 -7.62852e-016 -20   XYZ
    dof rx
    limits (-90.0 20.0)
  end
  begin
     id 11 
     name lowerback
     direction 0.0305179 0.993923 -0.10576   
     length 2.09077   
     axis 0 0 0   XYZ
    dof rx ry rz
    limits (-20.0 45.0)
           (-30.0 30.0)
           (-30.0 30.0)
  end
  begin
     id 12 
     name upperback
     direction -0.0137909 0.999867 0.00873764   
     length 2.08918   
     axis 0 0 0   XYZ
    dof rx ry rz
    limits (-20.0 45.0)
           (-30.0 30.0)
           (-30.0 30.0)
  end
  begin
     id 13 
     name thorax
     direction -0.0278536 0.997917 0.0581839   
     length 2.11939   
     axis 0 0 0   XYZ
    dof rx ry rz
    limits (-20.0 45.0)
           (-30.0 30.0)
           (-30.0 30.0)
  end
  begin
     id 14 
     name lowerneck
     direction 0.0138689 0.999837 -0.0116016   
     length 1.74353   
     axis 0 0 0   XYZ
    dof rx ry rz
    limits (-20.0 45.0)
           (-30.0 30.0)
           (-30.0 30.0)
  end
  begin
     id 15 
     name upperneck
     direction -0.00992078 0.999667 0.0238149   
     length 1.71734   
     axis 0 0 0   XYZ
    dof rx ry rz
    limits (-20.0 45.0)
           (-30.0 30.0)
           (-30.0 30.0)
  end
  begin
     id 16
     name head
     direction -0.00530555 0.999941 0.00944937  
     length 1.78249  
     axis 0 0 0   XYZ
    dof rx ry rz
    limits (-20.0 45.0)
           (-30.0 30.0)
           (-30.0 30.0)
  end
  begin
     id 17 
     name lclavicle
     direction 0.929165 0.366864 0.0454227  
     length 3.65686  
     axis 0 0 0   XYZ
    dof ry rz
    limits (-20.0 10.0)
           (0.0 20.0)
  end
  begin
     id 18 
     name lhumerus
     direction 1 -4.4897e-011 3.05413e-018   
     length 5.15218   
     axis -180 -30 -90   XYZ
    dof rx ry rz
    limits (-60.0 90.0)
           (-90.0 90.0)
           (-90.0 90.0)
  end
  begin
     id 19
     name lradius
     direction 1 -4.48963e-011 5.40022e-027   
     length 3.49459   
     axis -180 -30 -90   XYZ
    dof rx
    limits (-10.0 170.0)
  end
  begin
     id 20
     name lwrist
     direction 1 -4.48966e-011 9.79369e-027   
     length 1.7473   
     axis -4.67603e-015 90 90   XYZ
    dof ry
    limits (-180.0 0.0)
 end
  begin
     id 21 
     name lhand
     direction 1 -4.48996e-011 1.9593e-026   
     length 0.512466   
     axis -1.24987e-014 90 90   XYZ
    dof rx rz
    limits (-90.0 90.0)
           (-45.0 45.0)
  end
  begin
     id 22 
     name lfingers
     direction 1 -4.48931e-011 3.91616e-026   
     length 0.413163   
     axis -2.49979e-014 90 90   XYZ
    dof rx
    limits (0.0 90.0)
  end
  begin
     id 23
     name lthumb
     direction 0.707107 -6.34959e-011 0.707107   
     length 0.593222   
     axis -90 45 5.69224e-014   XYZ
    dof rx rz
    limits (-45.0 45.0)
           (-45.0 45.0)
  end
  begin
     id 24 
     name rclavicle
     direction -0.951469 0.307727 0.00346571   
     length 3.42864  
     axis 0 0 0   XYZ 
    dof ry rz
    limits (-10.0 20.0)
           (-20.0 0.0)
  end
  begin
     id 25 
     name rhumerus
     direction -1 -4.48967e-011 2.58643e-027  
     length 5.44344   
     axis -180 30 90   XYZ
    dof rx ry rz
    limits (-90.0 60.0)
           (-90.0 90.0)
           (-90.0 90.0)
  end
  begin
     id 26 
     name rradius
     direction -1 -4.48973e-011 4.26485e-028   
     length 3.58403   
     axis -180 30 90   XYZ
    dof rx
    limits (-10.0 170.0)
  end
  begin
     id 27 
     name rwrist
     direction -1 -4.48962e-011 9.79331e-027   
     length 1.79202   
     axis -4.67603e-015 -90 -90   XYZ
    dof ry
    limits (-180.0 0.0)
  end
  begin
     id 28
     name rhand
     direction -1 -4.48975e-011 1.95891e-026   
     length 0.34249   
     axis -1.24987e-014 -90 -90   XYZ
    dof rx rz
    limits (-90.0 90.0)
           (-45.0 45.0)
  end
  begin
     id 29
     name rfingers
     direction -1 -4.48893e-011 3.9147e-026   
     length 0.276124   
     axis -2.49979e-014 -90 -90   XYZ
    dof rx
    limits (0.0 90.0)
  end
  begin
     id 30
     name rthumb
     direction -0.707107 -6.34898e-011 0.707107   
     length 0.39646   
     axis -90 -45 -5.69224e-014   XYZ
    dof rx rz
    limits (-45.0 45.0)
           (-45.0 45.0)
  end
:hierarchy
  begin
    root lhipjoint rhipjoint lowerback
    lhipjoint lfemur
    lfemur ltibia
    ltibia lfoot
    lfoot ltoes
    rhipjoint rfemur
    rfemur rtibia
    rtibia rfoot
    rfoot rtoes
    lowerback upperback
    upperback thorax
    thorax lowerneck lclavicle rclavicle
    lowerneck upperneck
    upperneck head
    lclavicle lhumerus
    lhumerus lradius
    lradius lwrist
    lwrist lhand lthumb
    lhand lfingers
    rclavicle rhumerus
    rhumerus rradius
    rradius rwrist
    rwrist rhand rthumb
    rhand rfingers
  end

#!OML:ASF H:\charlestonDancing\Project 1\Capture day 1\Session 1\femaleDancer.ASF
:FULLY-SPECIFIED
:DEGREES
217
root -7.17264 17.2537 -2.40819 -177.368 151.663 -536.864
lowerback 15.4653 -3.32589 0.925784
upperback 2.11552 -4.27484 -1.00446
thorax -6.54819 -2.10226 -0.697452
lowerneck 8.12948 13.4717 11.3849
upperneck 7.55005 19.43 -11.1281
head 3.15876 9.89308 -4.71213
rclavicle 1.59789e-014 7.77745e-015
rhumerus -42.0485 -0.575923 -69.2115
rradius 55.9677
rwrist 4.956
rhand -19.6431 -30.3261
rfingers 7.12502
rthumb 6.68437 -60.2006
lclavicle 1.59789e-014 7.77745e-015
lhumerus -25.4188 19.4481 58.1173
lradius 83.2158
lwrist 29.5014
lhand -15.1206 28.372
lfingers 7.12502
lthumb 11.0484 58.0612
rfemur -36.6943 11.8559 16.1009
rtibia 67.7252
rfoot -15.2051 -11.9135
rtoes -7.48958
lfemur -15.6825 4.10719 -30.3538
ltibia 42.5133
lfoot -24.6633 2.57102
ltoes -4.90101
218
root -7.28221 17.2907 -2.49269 -177.241 154.454 -536.54
lowerback 15.4535 -2.87229 0.892244
upperback 2.01932 -3.70634 -1.27625
thorax -6.64657 -1.8302 -1.08416
lowerneck 8.64421 13.5425 11.8983
upperneck 7.46318 19.6457 -11.7239
head 3.18467 10.0253 -4.97834
rclavicle 5.34195e-014 -4.69008e-015
rhumerus -40.2684 2.27344 -71.7308
rradius 56.0884
rwrist 5.55163
rhand -19.6914 -30.0262
rfingers 7.12502
rthumb 6.63771 -59.9021
lclavicle 5.34195e-014 -4.69008e-015
lhumerus -26.6424 19.7658 57.7763
lradius 83.4719
lwrist 29.531
lhand -15.1625 28.4755
lfingers 7.12502
lthumb 11.008 58.1669
rfemur -35.8393 10.9481 15.1578
rtibia 69.9447
rfoot -14.8957 -13.558
rtoes -7.68287
lfemur -15.9097 5.14384 -30.6068
ltibia 41.8443
lfoot -24.4734 3.02271
ltoes -5.21388
219
root -7.38545 17.3291 -2.56272 -177.276 157.071 -536.111
lowerback 15.4183 -2.40022 0.818511
upperback 2.01936 -3.12132 -1.59927
thorax -6.62362 -1.54894 -1.51048
lowerneck 9.24354 13.5693 12.0833
upperneck 7.15054 19.7448 -12.0615
head 3.06014 10.0995 -5.15196
rclavicle -7.37802e-014 -1.16165e-015
rhumerus -38.7079 5.20344 -74.1773
rradius 56.2973
rwrist 5.82053
rhand -18.8661 -29.4798
rfingers 7.12502
rthumb 7.43436 -59.3292
lclavicle -7.37802e-014 -1.16165e-015
lhumerus -27.6294 19.9594 57.6119
lradius 83.5793
lwrist 29.4388
lhand -15.1644 28.5943
lfingers 7.12502
lthumb 11.0062 58.2858
rfemur -34.599 9.91619 13.8997
rtibia 71.6562
rfoot -14.3972 -14.1953
rtoes -8.1063
lfemur -15.8077 6.0754 -30.9216
ltibia 41.0723
lfoot -24.4231 3.03448
ltoes -5.13455
220
root -7.49203 17.3678 -2.62377 -177.291 159.462 -535.835
lowerback 15.2314 -1.9804 0.885641
upperback 1.99899 -2.57911 -1.87698
thorax -6.53856 -1.29161 -1.96283
lowerneck 9.8169 13.6105 12.3225
upperneck 6.83931 19.8688 -12.4238
head 2.95197 10.1873 -5.33617
rclavicle 5.71288e-014 -1.91454e-014
rhumerus -37.3482 8.3154 -76.5732
rradius 56.5793
rwrist 5.65908
rhand -18.2905 -28.6975
rfingers 7.12502
rthumb 7.99001 -58.5265
lclavicle 5.71288e-014 -1.91454e-014
lhumerus -28.5428 20.1639 57.4797
lradius 83.596
lwrist 29.1998
lhand -14.9626 28.3828
lfingers 7.12502
lthumb 11.2008 58.0639
rfemur -33.3424 8.88414 12.5949
rtibia 72.8187
rfoot -13.9344 -14.5004
rtoes -8.83227
lfemur -15.789 6.7732 -31.0607
ltibia 40.2536
lfoot -24.1734 3.67295
ltoes -6.22466
221
root -7.60232 17.392 -2.67474 -177.14 161.547 -535.207
lowerback 14.8869 -1.58979 0.689068
upperback 1.96869 -2.12537 -2.27528
thorax -6.36941 -1.07137 -2.37585
lowerneck 10.4728 13.5614 12.1083
upperneck 6.42043 19.7993 -12.4505
head 2.69759 10.1739 -5.39114
rclavicle -2.24378e-014 -8.84592e-015
rhumerus -36.1773 11.0947 -78.8581
rradius 56.8923
rwrist 5.95817
rhand -19.0007 -28.7199
rfingers 7.12502
rthumb 7.30451 -58.5738
lclavicle -2.24378e-014 -8.84592e-015
lhumerus -29.3532 20.3954 57.3904
lradius 83.5357
lwrist 28.8418
lhand -14.4723 28.1366
lfingers 7.12502
lthumb 11.6737 57.7914
rfemur -32.0832 7.71843 10.7707
rtibia 73.5155
rfoot -14.1674 -12.5661
rtoes -8.6619
lfemur -15.8534 7.23171 -31.5366
ltibia 39.5203
lfoot -23.7043 4.71481
ltoes -4.84029
222
root -7.71285 17.4058 -2.71375 -177.02 163.365 -534.139
lowerback 14.554 -1.19335 0.184853
upperback 2.0101 -1.71666 -2.84099
thorax -6.12505 -0.865369 -2.77837
lowerneck 11.0954 13.4754 12.2575
upperneck 5.95009 19.7198 -12.6269
head 2.48223 10.1623 -5.53511
rclavicle 5.57839e-015 -9.49197e-015
rhumerus -35.1992 13.4581 -81.0823
rradius 57.2817
rwrist 6.6336
rhand -19.8189 -29.3559
rfingers 7.12502
rthumb 6.51466 -59.2357
lclavicle 5.57839e-015 -9.49197e-015
lhumerus -29.9158 20.5677 57.4033
lradius 83.3978
lwrist 28.6358
lhand -14.1071 28.1889
lfingers 7.12502
lthumb 12.0258 57.8234
rfemur -30.5362 6.32282 8.39122
rtibia 73.6514
rfoot -14.2158 -10.7777
rtoes -8.40092
lfemur -15.7778 7.96002 -32.3916
ltibia 38.9373
lfoot -23.2394 5.14379
ltoes -1.90507
223
root -7.83288 17.419 -2.75138 -177.061 164.978 -533.545
lowerback 14.3437 -0.817063 0.058877
upperback 2.0241 -1.26195 -3.23893
thorax -5.97732 -0.643896 -3.22103
lowerneck 10.9475 13.5403 11.9761
upperneck 6.29747 19.7721 -12.2929
head 2.55628 10.1735 -5.37477
rclavicle -9.4547e-015 -1.36664e-014
rhumerus -34.4065 15.6506 -83.1555
rradius 57.7067
rwrist 7.32538
rhand -20.397 -29.6123
rfingers 7.12502
rthumb 5.95652 -59.5085
lclavicle -9.4547e-015 -1.36664e-014
lhumerus -30.3033 20.7368 57.5891
lradius 83.2517
lwrist 28.7941
lhand -14.2555 28.3068
lfingers 7.12502
lthumb 11.8828 57.9496
rfemur -28.8869 5.16873 6.51749
rtibia 73.2049
rfoot -14.1638 -8.70753
rtoes -8.19017
lfemur -15.6705 8.0795 -32.7244
ltibia 38.3236
lfoot -23.1783 5.88705
ltoes 0.418109
224
root -7.96827 17.4302 -2.79138 -177.157 166.429 -533.338
lowerback 14.2633 -0.419518 0.176799
upperback 1.96481 -0.736049 -3.49798
thorax -5.97032 -0.392781 -3.6669
lowerneck 10.0789 13.7259 11.704
upperneck 7.33332 19.952 -11.4435
head 2.91496 10.2198 -4.97417
rclavicle 8.93289e-015 6.36111e-015
rhumerus -33.7609 17.4766 -85.0656
rradius 58.0132
rwrist 8.0957
rhand -20.9094 -29.623
rfingers 7.12502
rthumb 5.4618 -59.5326
lclavicle 8.93289e-015 6.36111e-015
lhumerus -30.5172 20.8682 57.9339
lradius 83.0663
lwrist 29.1653
lhand -14.7149 28.5926
lfingers 7.12502
lthumb 11.4398 58.2605
rfemur -27.2258 4.42988 5.15444
rtibia 72.1143
rfoot -13.7859 -6.73967
rtoes -8.82117
lfemur -15.7277 8.41262 -32.5685
ltibia 37.846
lfoot -23.0926 6.69152
ltoes 0.874983
225
root -8.10608 17.4127 -2.81226 -177.208 167.667 -531.023
lowerback 14.3624 0.123605 -1.6875
upperback 2.0564 -0.355076 -4.35138
thorax -5.89841 -0.170607 -3.59006
lowerneck 9.77279 13.7609 11.2547
upperneck 7.6895 19.8999 -10.622
head 2.94008 10.1738 -4.64774
rclavicle -1.72446e-014 2.48481e-014
rhumerus -33.207 18.9377 -86.9535
rradius 58.1091
rwrist 8.41076
rhand -21.5443 -29.9768
rfingers 7.12502
rthumb 4.84883 -59.9013
lclavicle -1.72446e-014 2.48481e-014
lhumerus -30.5735 20.9448 58.3573
lradius 82.8119
lwrist 29.3633
lhand -15.0002 28.9497
lfingers 7.12502
lthumb 11.1645 58.6327
rfemur -24.9647 3.27027 1.36351
rtibia 70.5591
rfoot -14.3565 -3.31646
rtoes -10.2803
lfemur -15.2467 10.2927 -34.4681
ltibia 37.4619
lfoot -22.4645 6.36351
ltoes -0.392734
226
root -8.26749 17.4261 -2.82571 -177.186 168.582 -530.702
lowerback 14.0203 0.541877 -1.81966
upperback 1.96605 0.171552 -4.64061
thorax -5.77864 0.0877083 -3.9202
lowerneck 9.83501 13.6418 11.0338
upperneck 7.678 19.6894 -10.1419
head 2.83586 10.0682 -4.50218
rclavicle 2.98177e-015 3.61788e-014
rhumerus -32.7608 20.2139 -88.7977
rradius 58.0879
rwrist 7.85929
rhand -22.5285 -30.5584
rfingers 7.12502
rthumb 3.89843 -60.5025
lclavicle 2.98177e-015 3.61788e-014
lhumerus -30.4646 21.0304 58.8861
lradius 82.5133
lwrist 29.3141
lhand -15.0697 29.0426
lfingers 7.12502
lthumb 11.0975 58.7292
rfemur -22.9756 2.63792 0.132279
rtibia 68.2544
rfoot -14.7936 -3.31779
rtoes -14.3819
lfemur -15.4133 11.2039 -34.2703
ltibia 37.2683
lfoot -21.9687 6.44881
ltoes -1.28702
227
root -8.42936 17.4384 -2.8273 -177.283 169.224 -530.952
lowerback 13.5957 0.908353 -1.31662
upperback 1.89764 0.738029 -4.80436
thorax -5.57674 0.354846 -4.4772
lowerneck 9.65086 13.4823 11.8372
upperneck 7.9992 19.5733 -10.3088
head 3.04122 10.0243 -4.63165
rclavicle 2.66868e-014 -2.42517e-014
rhumerus -32.3602 21.1598 -90.5603
rradius 57.9995
rwrist 7.01216
rhand -23.1818 -31.009
rfingers 7.12502
rthumb 3.26753 -60.9637
lclavicle 2.66868e-014 -2.42517e-014
lhumerus -30.1378 21.1084 59.4891
lradius 82.1527
lwrist 29.2786
lhand -15.1125 29.0469
lfingers 7.12502
lthumb 11.0562 58.7357
rfemur -20.7068 2.59068 -0.259709
rtibia 65.4426
rfoot -14.4401 -1.60512
rtoes -14.9687
lfemur -15.532 12.158 -33.4426
ltibia 37.156
lfoot -21.2811 6.63327
ltoes -4.13021
228
root -8.59092 17.4451 -2.82418 -177.392 169.544 -530.766
lowerback 13.2304 1.26283 -1.12358
upperback 1.88641 1.23517 -5.11307
thorax -5.3421 0.596421 -4.99474
lowerneck 9.60317 13.246 11.7043
upperneck 8.06481 19.2116 -9.82944
head 2.96933 9.84365 -4.49485
rclavicle 3.24516e-014 -3.3197e-014
rhumerus -31.9107 21.6399 -92.2094
rradius 57.7674
rwrist 6.41657
rhand -23.4518 -31.4154
rfingers 7.12502
rthumb 3.00683 -61.3739
lclavicle 3.24516e-014 -3.3197e-014
lhumerus -29.7084 21.1762 60.1792
lradius 81.8582
lwrist 29.258
lhand -15.1169 28.9583
lfingers 7.12502
lthumb 11.052 58.6474
rfemur -18.0799 2.67735 -1.03113
rtibia 62.1332
rfoot -13.1447 -0.118971
rtoes -15.3747
lfemur -15.5942 12.6801 -33.0428
ltibia 37.3732
lfoot -21.0758 6.39391
ltoes -3.8118
229
root -8.77305 17.4592 -2.82925 -177.439 169.549 -530.982
lowerback 12.9216 1.55126 -0.697282
upperback 1.81686 1.68026 -5.27084
thorax -5.19313 0.808737 -5.47394
lowerneck 10.0335 12.9054 11.6517
upperneck 7.60805 18.7458 -9.64541
head 2.69137 9.62565 -4.51387
rclavicle -5.70512e-014 3.55825e-014
rhumerus -31.4915 21.9968 -93.7132
rradius 57.5098
rwrist 5.9039
rhand -23.6648 -31.5875
rfingers 7.12502
rthumb 2.8011 -61.5488
lclavicle -5.70512e-014 3.55825e-014
lhumerus -29.2742 21.3758 60.9551
lradius 81.7309
lwrist 29.1581
lhand -15.1424 28.7955
lfingers 7.12502
lthumb 11.0274 58.4858
rfemur -15.4813 3.20811 -1.02027
rtibia 58.5235
rfoot -13.2113 1.77411
rtoes -20.8435
lfemur -15.8395 12.8171 -32.14
ltibia 37.6348
lfoot -21.0209 5.72967
ltoes -0.443783
230
root -8.96546 17.4764 -2.83317 -177.755 169.45 -532.197
lowerback 12.7455 1.77559 0.657428
upperback 1.762 2.17517 -5.18247
thorax -5.06153 1.0308 -6.23164
lowerneck 10.6454 12.5479 11.8295
upperneck 6.95441 18.3004 -9.67952
head 2.37031 9.42545 -4.64178
rclavicle -5.32743e-014 3.26007e-014
rhumerus -31.1128 22.4093 -95.1588
rradius 57.2931
rwrist 5.34846
rhand -24.2822 -32.3235
rfingers 7.12502
rthumb 2.2048 -62.2919
lclavicle -5.32743e-014 3.26007e-014
lhumerus -28.7207 21.6466 61.6731
lradius 81.6214
lwrist 29.0492
lhand -15.242 28.7982
lfingers 7.12502
lthumb 10.9314 58.4936
rfemur -12.7012 4.84392 0.519179
rtibia 54.7027
rfoot -14.0534 2.81156
rtoes -26.3635
lfemur -16.0536 12.9879 -30.0777
ltibia 37.9561
lfoot -20.7336 5.41138
ltoes 0.17967
231
root -9.18726 17.4547 -2.82679 -177.297 168.985 -531.047
lowerback 12.1172 2.08156 -0.62155
upperback 1.72479 2.40545 -5.70278
thorax -4.75886 1.17209 -6.06165
lowerneck 10.3942 12.2864 12.528
upperneck 7.09753 18.0025 -9.58411
head 2.47231 9.28765 -4.69707
rclavicle 4.02539e-014 -2.0276e-014
rhumerus -30.6763 22.8912 -96.5802
rradius 57.1049
rwrist 4.77815
rhand -25.2262 -33.8871
rfingers 7.12502
rthumb 1.29314 -63.863
lclavicle 4.02539e-014 -2.0276e-014
lhumerus -28.0088 21.895 62.2961
lradius 81.5333
lwrist 28.8287
lhand -15.3566 28.9675
lfingers 7.12502
lthumb 10.8208 58.6687
rfemur -10.4465 5.71889 -0.291217
rtibia 51.0553
rfoot -18.3197 3.71256
rtoes -35.17
lfemur -16.634 12.8382 -30.5877
ltibia 38.3386
lfoot -20.1791 5.5488
ltoes -2.59987
